<svg xmlns="http://www.w3.org/2000/svg" viewBox="0 0 800 500" fill="none">
  <!-- Background -->
  <rect width="800" height="500" rx="12" fill="#0A0E1A"/>
  <!-- Title bar -->
  <rect width="800" height="40" rx="12" fill="#141824"/>
  <rect y="28" width="800" height="12" fill="#141824"/>
  <!-- Traffic lights -->
  <circle cx="20" cy="20" r="6" fill="#FF5F57"/>
  <circle cx="40" cy="20" r="6" fill="#FEBC2E"/>
  <circle cx="60" cy="20" r="6" fill="#28C840"/>
  <!-- Title -->
  <text x="400" y="24" text-anchor="middle" fill="#8892B0" font-family="monospace" font-size="13">IntelligenceX Reviewer</text>

  <!-- File header -->
  <rect x="20" y="56" width="760" height="30" rx="4" fill="#1E2435"/>
  <text x="36" y="76" fill="#00D9FF" font-family="monospace" font-size="12">src/Services/ReviewEngine.cs</text>
  <text x="700" y="76" fill="#8892B0" font-family="monospace" font-size="11">+42 -17</text>

  <!-- Diff lines -->
  <rect x="20" y="96" width="760" height="24" fill="rgba(16,185,129,0.08)"/>
  <text x="36" y="113" fill="#10B981" font-family="monospace" font-size="12">+ public async Task&lt;ReviewResult&gt; AnalyzeAsync(PullRequest pr)</text>

  <rect x="20" y="120" width="760" height="24" fill="rgba(16,185,129,0.08)"/>
  <text x="36" y="137" fill="#10B981" font-family="monospace" font-size="12">+ {</text>

  <rect x="20" y="144" width="760" height="24" fill="rgba(16,185,129,0.08)"/>
  <text x="36" y="161" fill="#10B981" font-family="monospace" font-size="12">+     var context = await BuildContext(pr);</text>

  <text x="36" y="185" fill="#8892B0" font-family="monospace" font-size="12">      var findings = new List&lt;Finding&gt;();</text>

  <rect x="20" y="192" width="760" height="24" fill="rgba(239,68,68,0.08)"/>
  <text x="36" y="209" fill="#EF4444" font-family="monospace" font-size="12">-     foreach (var file in pr.Files)</text>

  <rect x="20" y="216" width="760" height="24" fill="rgba(16,185,129,0.08)"/>
  <text x="36" y="233" fill="#10B981" font-family="monospace" font-size="12">+     await Parallel.ForEachAsync(pr.Files, async (file, ct) =&gt;</text>

  <text x="36" y="257" fill="#8892B0" font-family="monospace" font-size="12">      {</text>

  <rect x="20" y="264" width="760" height="24" fill="rgba(239,68,68,0.08)"/>
  <text x="36" y="281" fill="#EF4444" font-family="monospace" font-size="12">-         var result = analyzer.Review(file);</text>

  <rect x="20" y="288" width="760" height="24" fill="rgba(16,185,129,0.08)"/>
  <text x="36" y="305" fill="#10B981" font-family="monospace" font-size="12">+         var result = await analyzer.ReviewAsync(file, ct);</text>

  <!-- Inline comment bubble -->
  <rect x="60" y="320" width="700" height="80" rx="8" fill="#1E2435" stroke="#334155" stroke-width="1"/>
  <rect x="60" y="320" width="700" height="28" rx="8" fill="#141824"/>
  <rect x="60" y="336" width="700" height="12" fill="#141824"/>
  <circle cx="80" cy="334" r="10" fill="#00D9FF" opacity="0.2"/>
  <text x="80" y="338" text-anchor="middle" fill="#00D9FF" font-family="monospace" font-size="10" font-weight="bold">IX</text>
  <text x="96" y="338" fill="#E2E8F0" font-family="monospace" font-size="11" font-weight="bold">IntelligenceX Reviewer</text>
  <text x="260" y="338" fill="#8892B0" font-family="monospace" font-size="10">just now</text>
  <text x="76" y="365" fill="#E2E8F0" font-family="monospace" font-size="11">Good improvement! Parallel execution will significantly speed up</text>
  <text x="76" y="382" fill="#E2E8F0" font-family="monospace" font-size="11">reviews on large PRs. Consider adding a</text>
  <text x="358" y="382" fill="#00D9FF" font-family="monospace" font-size="11">MaxDegreeOfParallelism</text>
  <text x="583" y="382" fill="#E2E8F0" font-family="monospace" font-size="11">option.</text>

  <!-- Bottom action bar -->
  <rect x="20" y="420" width="760" height="60" rx="8" fill="#1E2435"/>
  <rect x="36" y="436" width="120" height="30" rx="6" fill="#00D9FF" opacity="0.15"/>
  <text x="96" y="456" text-anchor="middle" fill="#00D9FF" font-family="monospace" font-size="11">Approve</text>
  <rect x="172" y="436" width="140" height="30" rx="6" fill="#334155"/>
  <text x="242" y="456" text-anchor="middle" fill="#8892B0" font-family="monospace" font-size="11">Request Changes</text>
  <rect x="328" y="436" width="100" height="30" rx="6" fill="#334155"/>
  <text x="378" y="456" text-anchor="middle" fill="#8892B0" font-family="monospace" font-size="11">Comment</text>
</svg>