<svg xmlns="http://www.w3.org/2000/svg" viewBox="0 0 800 500" fill="none">
  <!-- Background -->
  <rect width="800" height="500" rx="12" fill="#0A0E1A"/>
  <!-- Title bar -->
  <rect width="800" height="40" rx="12" fill="#141824"/>
  <rect y="28" width="800" height="12" fill="#141824"/>
  <!-- Traffic lights -->
  <circle cx="20" cy="20" r="6" fill="#FF5F57"/>
  <circle cx="40" cy="20" r="6" fill="#FEBC2E"/>
  <circle cx="60" cy="20" r="6" fill="#28C840"/>
  <!-- Title -->
  <text x="400" y="24" text-anchor="middle" fill="#8892B0" font-family="monospace" font-size="13">IX Tools</text>

  <!-- Header -->
  <text x="36" y="72" fill="#E2E8F0" font-family="monospace" font-size="14" font-weight="bold">Installed Tool Packs</text>
  <text x="36" y="90" fill="#8892B0" font-family="monospace" font-size="11">8 packs active | 47 tools available</text>

  <!-- Tool pack list -->
  <!-- Pack 1 -->
  <rect x="20" y="106" width="760" height="40" rx="6" fill="#1E2435"/>
  <text x="56" y="131" fill="#10B981" font-family="monospace" font-size="14">&#x2713;</text>
  <text x="76" y="131" fill="#E2E8F0" font-family="monospace" font-size="12">ActiveDirectory</text>
  <text x="400" y="131" fill="#8892B0" font-family="monospace" font-size="11">User, Group, OU management</text>
  <text x="720" y="131" fill="#00D9FF" font-family="monospace" font-size="10">12 tools</text>

  <!-- Pack 2 -->
  <rect x="20" y="152" width="760" height="40" rx="6" fill="#1E2435"/>
  <text x="56" y="177" fill="#10B981" font-family="monospace" font-size="14">&#x2713;</text>
  <text x="76" y="177" fill="#E2E8F0" font-family="monospace" font-size="12">Exchange</text>
  <text x="400" y="177" fill="#8892B0" font-family="monospace" font-size="11">Mailbox, distribution lists</text>
  <text x="720" y="177" fill="#00D9FF" font-family="monospace" font-size="10">8 tools</text>

  <!-- Pack 3 -->
  <rect x="20" y="198" width="760" height="40" rx="6" fill="#1E2435"/>
  <text x="56" y="223" fill="#10B981" font-family="monospace" font-size="14">&#x2713;</text>
  <text x="76" y="223" fill="#E2E8F0" font-family="monospace" font-size="12">DevOps</text>
  <text x="400" y="223" fill="#8892B0" font-family="monospace" font-size="11">Pipeline, build, release</text>
  <text x="720" y="223" fill="#00D9FF" font-family="monospace" font-size="10">6 tools</text>

  <!-- Pack 4 -->
  <rect x="20" y="244" width="760" height="40" rx="6" fill="#1E2435"/>
  <text x="56" y="269" fill="#10B981" font-family="monospace" font-size="14">&#x2713;</text>
  <text x="76" y="269" fill="#E2E8F0" font-family="monospace" font-size="12">Email</text>
  <text x="400" y="269" fill="#8892B0" font-family="monospace" font-size="11">Send, draft, template</text>
  <text x="720" y="269" fill="#00D9FF" font-family="monospace" font-size="10">5 tools</text>

  <!-- Pack 5 -->
  <rect x="20" y="290" width="760" height="40" rx="6" fill="#1E2435"/>
  <text x="56" y="315" fill="#10B981" font-family="monospace" font-size="14">&#x2713;</text>
  <text x="76" y="315" fill="#E2E8F0" font-family="monospace" font-size="12">GitHub</text>
  <text x="400" y="315" fill="#8892B0" font-family="monospace" font-size="11">PR, issues, actions</text>
  <text x="720" y="315" fill="#00D9FF" font-family="monospace" font-size="10">7 tools</text>

  <!-- Pack 6 -->
  <rect x="20" y="336" width="760" height="40" rx="6" fill="#1E2435"/>
  <text x="56" y="361" fill="#10B981" font-family="monospace" font-size="14">&#x2713;</text>
  <text x="76" y="361" fill="#E2E8F0" font-family="monospace" font-size="12">SQL</text>
  <text x="400" y="361" fill="#8892B0" font-family="monospace" font-size="11">Query, schema, migration</text>
  <text x="720" y="361" fill="#00D9FF" font-family="monospace" font-size="10">4 tools</text>

  <!-- Pack 7 -->
  <rect x="20" y="382" width="760" height="40" rx="6" fill="#1E2435"/>
  <text x="56" y="407" fill="#10B981" font-family="monospace" font-size="14">&#x2713;</text>
  <text x="76" y="407" fill="#E2E8F0" font-family="monospace" font-size="12">FileSystem</text>
  <text x="400" y="407" fill="#8892B0" font-family="monospace" font-size="11">File ops, search, archive</text>
  <text x="720" y="407" fill="#00D9FF" font-family="monospace" font-size="10">3 tools</text>

  <!-- Pack 8 -->
  <rect x="20" y="428" width="760" height="40" rx="6" fill="#1E2435"/>
  <text x="56" y="453" fill="#10B981" font-family="monospace" font-size="14">&#x2713;</text>
  <text x="76" y="453" fill="#E2E8F0" font-family="monospace" font-size="12">Monitoring</text>
  <text x="400" y="453" fill="#8892B0" font-family="monospace" font-size="11">Logs, alerts, health</text>
  <text x="720" y="453" fill="#00D9FF" font-family="monospace" font-size="10">2 tools</text>
</svg>